<svg xmlns="http://www.w3.org/2000/svg" viewBox="0 0 256 256">
  <defs>
    <linearGradient id="grad" x1="0%" x2="100%" y1="0%" y2="100%">
      <stop offset="0%" stop-color="#42a5f5" />
      <stop offset="100%" stop-color="#7e57c2" />
    </linearGradient>
  </defs>
  <rect width="256" height="256" rx="56" fill="url(#grad)" />
  <g fill="#ffffff">
    <path d="M76 72h44l8 24 8-24h44l-52 112z" opacity="0.9" />
    <path d="M128 204c-42.4 0-76.8-34.4-76.8-76.8 0-33.7 21.4-62.5 51.2-73.6l9.6 27.2c-20.1 7-34.4 26.1-34.4 48.8 0 28.2 22.8 51 51 51s51-22.8 51-51c0-22.7-14.3-41.9-34.4-48.8l9.6-27.2c29.8 11.1 51.2 39.9 51.2 73.6 0 42.4-34.4 76.8-76.8 76.8z" opacity="0.8" />
  </g>
</svg>
